<?xml version="1.0" encoding="utf-8"?>
<!-- Generator: Adobe Illustrator 16.0.0, SVG Export Plug-In . SVG Version: 6.00 Build 0)  -->
<!DOCTYPE svg PUBLIC "-//W3C//DTD SVG 1.1//EN" "http://www.w3.org/Graphics/SVG/1.1/DTD/svg11.dtd">
<svg version="1.1" id="Layer_1" xmlns="http://www.w3.org/2000/svg" xmlns:xlink="http://www.w3.org/1999/xlink" x="0px" y="0px"
	 width="2459px" height="600px" viewBox="0 0 2459 600" enable-background="new 0 0 2459 600" xml:space="preserve">
<g>
	<path fill="#E5E3E3" d="M181.754,588.665v11.279c-21.058-3.01-39.316-9.023-54.785-18.047
		c-20.841-12.033-37.116-27.502-48.823-46.405c-11.712-18.908-17.563-39.211-17.563-60.908c0-14.396,2.256-31.149,6.768-50.273
		c5.368-22.343,8.057-38.778,8.057-49.307c0-16.325-6.606-31.149-19.819-44.473C42.374,317.212,24.488,309.05,1.93,306.039v-13.213
		c22.559-3.006,40.444-11.118,53.657-24.331s19.819-28.198,19.819-44.956c0-10.313-2.689-26.637-8.057-48.984
		c-4.512-19.12-6.768-35.983-6.768-50.596c0-21.914,6.229-42.539,18.691-61.875c12.458-19.336,29.11-34.805,49.951-46.406
		c14.824-8.379,32.333-13.857,52.529-16.436v11.279c-24.925,6.012-43.294,15.73-55.107,29.15
		c-11.818,13.424-17.725,29.15-17.725,47.187c0,11.168,2.633,28.022,7.906,50.565c4.612,19.542,6.918,36.29,6.918,50.243
		c0,22.337-8.142,43.646-24.417,63.939c-16.274,20.292-39.936,35.913-70.974,46.859c30.394,11.179,53.894,27.09,70.491,47.726
		c16.597,20.635,24.9,42.236,24.9,64.805c0,14.189-2.306,30.958-6.918,50.305c-5.272,22.568-7.906,39.553-7.906,50.947
		c0,17.624,5.907,33.204,17.725,46.755C138.459,572.542,156.829,582.433,181.754,588.665z"/>
</g>
<g>
	<path fill="#E5E3E3" d="M227.468,25.593h125.156v19.688h-12.422c-8.438,0-14.414,0.868-17.93,2.6
		c-3.516,1.736-6.211,4.494-8.086,8.273c-1.875,3.783-2.813,9.455-2.813,17.018v172.734c0,26.096-4.219,46.523-12.656,61.29
		c-8.438,14.766-21.914,26.953-40.43,36.563s-40.276,14.414-65.273,14.414c-33.281,0-60.04-8.826-80.273-26.484
		c-20.237-17.656-30.352-38.204-30.352-61.641c0-11.719,2.655-20.779,7.969-27.188c5.31-6.405,11.953-9.609,19.922-9.609
		c6.248,0,11.444,2.344,15.586,7.031c4.138,4.688,6.211,10.781,6.211,18.281c0,2.19-0.626,6.643-1.875,13.359
		c-1.406,7.031-2.109,11.953-2.109,14.766c0,11.565,5.896,22.071,17.695,31.524c11.796,9.455,27.07,14.18,45.82,14.18
		c15.469,0,29.374-3.436,41.719-10.313c12.341-6.875,21.211-15.469,26.602-25.782c5.391-10.313,8.086-25.232,8.086-44.766V80.671
		c0-11.638-0.901-19.464-2.695-23.474c-1.798-4.01-4.651-6.999-8.555-8.965c-3.907-1.966-11.096-2.952-21.563-2.952h-7.734V25.593z"
		/>
</g>
<g>
	<path fill="#E5E3E3" d="M372.805,86.593h38.342l101.751,273.34c5,13.725,10.039,22.811,15.117,27.256
		c5.076,4.447,11.914,6.67,20.508,6.67h5.156v19.688H437.328v-19.688c3.75-0.313,7.42-0.469,11.016-0.469
		c7.5,0,12.422-0.781,14.766-2.344c4.529-2.967,6.797-6.717,6.797-11.25c0-3.281-2.189-11.328-6.563-24.141l-21.639-63.282H323.257
		l-25.503,70.782c-2.659,7.346-3.984,12.422-3.984,15.234c0,3.127,0.82,5.859,2.461,8.203s3.867,4.102,6.68,5.273
		s7.342,1.758,13.594,1.758c4.219,0,7.654,0.08,10.313,0.234v19.688h-97.738v-19.688c9.06,0,15.586-0.898,19.57-2.695
		c3.984-1.795,7.459-4.688,10.43-8.672c2.966-3.984,6.874-12.383,11.719-25.191L372.805,86.593z M331.533,269.406h100.965
		l-50.303-140.625L331.533,269.406z"/>
</g>
<g>
	<path fill="#E5E3E3" d="M523.461,246.215c29.864,0,56.836,7.188,80.914,21.563c26.111,15.469,46.164,35.548,60.161,60.234
		c13.993,24.689,20.991,53.283,20.991,85.781c0,50.313-15.637,91.329-46.908,123.047c-31.274,31.721-71.144,47.578-119.615,47.578
		c-54.101,0-96.943-19.062-128.529-57.188c-25.799-31.092-38.697-68.28-38.697-111.563c0-32.187,7.27-61.055,21.812-86.602
		c14.538-25.547,35.179-45.74,61.919-60.586C462.245,253.638,491.563,246.215,523.461,246.215z M523.351,271.527
		c-24.426,0-45.41,5.588-62.944,16.758c-17.534,11.173-31.586,27.619-42.154,49.336c-10.568,21.72-15.85,48.516-15.85,80.391
		c0,30.469,5.204,56.29,15.615,77.461c10.411,21.174,24.386,37.383,41.92,48.633s37.262,16.875,59.184,16.875
		c21.76,0,41.02-5.508,57.773-16.523c16.75-11.016,30.607-28.359,41.568-52.031c10.957-23.672,16.439-49.959,16.439-78.867
		c0-29.374-5.482-56.25-16.439-80.625c-9.396-20.937-21.844-36.405-37.342-46.406C565.623,276.53,546.363,271.527,523.351,271.527z"
		/>
</g>
<g>
	<path fill="#E5E3E3" d="M620.713,12.43V1.151c20.837,2.794,39.1,8.701,54.785,17.725c20.837,12.035,37.111,27.503,48.823,46.406
		c11.707,18.908,17.563,39.21,17.563,60.908c0,14.613-2.256,31.371-6.768,50.273c-5.373,22.347-8.057,38.782-8.057,49.307
		c0,16.33,6.606,31.154,19.819,44.473c13.213,13.323,31.099,21.486,53.657,24.492v13.212c-22.559,3.012-40.444,11.119-53.657,24.332
		s-19.819,28.197-19.819,44.955c0,10.313,2.684,26.643,8.057,48.984c4.512,19.125,6.768,35.984,6.768,50.596
		c0,21.914-6.233,42.539-18.691,61.875c-12.463,19.336-29.114,34.805-49.951,46.406c-14.824,8.379-32.337,13.963-52.529,16.758
		v-11.279c24.92-6.232,43.289-16.072,55.107-29.502c11.813-13.439,17.725-29.186,17.725-47.242c0-11.178-2.578-28.053-7.734-50.621
		c-4.729-19.346-7.09-36.113-7.09-50.303c0-22.354,8.162-43.688,24.492-64c16.325-20.313,39.961-35.953,70.898-46.92
		c-30.293-11.164-53.768-27.05-70.415-47.666c-16.652-20.615-24.976-42.196-24.976-64.745c0-13.953,2.361-30.701,7.09-50.243
		c5.156-22.543,7.734-39.508,7.734-50.888c0-17.604-5.911-33.173-17.725-46.704C664.002,28.216,645.633,18.442,620.713,12.43z"/>
</g>
<g>
	<path fill="#E5E3E3" d="M871.641,181.203c8.123,0,15.077,2.893,20.859,8.672c5.779,5.782,8.672,12.737,8.672,20.859
		c0,8.284-2.893,15.315-8.672,21.094c-5.782,5.782-12.736,8.672-20.859,8.672c-7.969,0-14.846-2.849-20.625-8.555
		c-5.782-5.702-8.672-12.616-8.672-20.742c0-8.123,2.967-15.154,8.906-21.094C857.187,184.173,863.983,181.203,871.641,181.203z
		 M871.641,358.391c8.28,0,15.271,2.853,20.977,8.555c5.702,5.705,8.555,12.619,8.555,20.742c0,8.126-2.893,15.04-8.672,20.742
		c-5.782,5.702-12.736,8.555-20.859,8.555c-7.969,0-14.846-2.853-20.625-8.555c-5.782-5.702-8.672-12.616-8.672-20.742
		c0-8.123,2.85-15.037,8.555-20.742C856.601,361.243,863.515,358.391,871.641,358.391z"/>
</g>
<g>
	<path fill="#E5E3E3" d="M970.707,257.902v-10.132c6.084-0.568,11.318-1.545,15.701-2.93c4.381-1.383,10.062-3.906,17.04-7.568
		h8.885v132.935c0,9.602-1.831,17.658-5.493,24.17c-3.662,6.51-8.789,11.677-15.381,15.503c-6.592,3.824-14.446,5.737-23.56,5.737
		c-8.789,0-15.787-1.831-20.996-5.493c-5.207-3.662-7.813-7.446-7.813-11.353c0-3.256,1.037-5.941,3.113-8.057
		c2.074-2.117,4.781-3.174,8.117-3.174c1.953,0,3.643,0.366,5.066,1.099s3.438,2.399,6.042,5.005
		c3.906,3.906,7.038,6.51,9.399,7.813c1.709,0.977,3.62,1.465,5.737,1.465c5.045,0,9.033-2.439,11.963-7.318
		c2.197-3.578,3.296-9.392,3.296-17.441v-120.26H970.707z M1001.651,182.219c3.922,0,7.273,1.364,10.052,4.089
		c2.779,2.728,4.17,6.042,4.17,9.949s-1.391,7.244-4.17,10.01c-2.778,2.768-6.13,4.15-10.052,4.15c-3.923,0-7.253-1.383-9.992-4.15
		c-2.739-2.766-4.106-6.104-4.106-10.01s1.367-7.221,4.106-9.949C994.398,183.583,997.729,182.219,1001.651,182.219z"/>
	<path fill="#E5E3E3" d="M1038.456,240.202l46.265-1.831v78.613c0,6.918,0.956,12.411,2.868,16.479
		c1.912,4.07,4.842,7.223,8.789,9.46c3.947,2.239,8.564,3.357,13.855,3.357c6.51,0,13.896-1.749,22.156-5.249
		c8.259-3.498,16.498-8.707,24.719-15.625v-56.885c0-6.021-0.448-9.968-1.343-11.841c-0.896-1.871-2.483-3.376-4.761-4.517
		c-2.279-1.139-5.859-1.709-10.742-1.709h-8.911v-10.254l46.265-1.831v91.064c0,5.859,0.488,9.908,1.465,12.146
		s2.421,3.825,4.334,4.76c1.911,0.937,5.756,1.404,11.535,1.404h3.784V358l-40.527,2.075v-22.583
		c-11.15,8.871-20.874,14.995-29.175,18.371c-8.301,3.377-16.724,5.066-25.269,5.066c-6.348,0-11.861-0.854-16.54-2.563
		c-4.681-1.709-8.789-4.272-12.33-7.69c-3.539-3.418-6.246-7.526-8.117-12.329c-1.873-4.801-2.808-9.928-2.808-15.381v-55.542
		c0-4.963-0.448-8.442-1.343-10.437c-0.896-1.993-2.381-3.58-4.455-4.761c-2.076-1.179-4.904-1.77-8.484-1.77h-11.23V240.202z"/>
	<path fill="#E5E3E3" d="M1302.962,287.321l0.021-13.306c0-9.033-2.529-15.482-7.586-19.348c-5.056-3.864-12.191-5.798-21.407-5.798
		c-4.566,0-8.563,0.549-11.988,1.648s-6.18,2.605-8.259,4.517c-2.079,1.913-3.608,4.089-4.587,6.531
		c-0.408,0.896-1.387,4.354-2.936,10.376c-1.873,7.324-5.657,10.986-11.353,10.986c-3.256,0-5.88-1.078-7.873-3.235
		c-1.995-2.155-2.991-5.066-2.991-8.728c0-5.371,1.993-10.639,5.981-15.808c3.986-5.167,10.07-9.439,18.25-12.817
		c8.178-3.376,17.841-5.066,28.991-5.066c10.416,0,19.327,1.606,26.733,4.816c7.404,3.212,12.857,7.824,16.357,13.84
		c2.441,4.146,3.662,11.708,3.662,22.68v46.945c0,6.669,0.202,11.018,0.61,13.049c0.895,3.496,2.461,6.118,4.7,7.865
		c2.237,1.747,5.146,2.621,8.728,2.621c3.742,0,8.219-0.86,13.428-2.583v10.636c-6.756,1.955-12.817,2.934-18.188,2.934
		c-5.779,0-10.641-0.814-14.588-2.441s-7.183-4.008-9.704-7.142c-2.523-3.132-4.15-6.854-4.883-11.169
		c-9.766,7.65-18.597,13.021-26.489,16.113c-7.895,3.092-15.869,4.639-23.926,4.639c-11.23,0-20.346-3.052-27.344-9.155
		c-7-6.104-10.498-13.264-10.498-21.484c0-4.963,1.281-9.684,3.849-14.16c2.567-4.475,6.478-8.423,11.732-11.841
		s13.504-6.428,24.748-9.033C1267.397,291.798,1282.999,289.438,1302.962,287.321z M1302.896,297.943
		c-18.891,2.768-30.574,4.681-35.053,5.737c-8.877,2.035-15.229,4.272-19.055,6.714c-3.828,2.441-6.556,5.065-8.185,7.873
		s-2.441,5.797-2.441,8.971s0.915,6.246,2.748,9.217c1.831,2.971,4.418,5.31,7.758,7.019c3.338,1.709,6.882,2.563,10.628,2.563
		c5.291,0,11.275-1.261,17.953-3.784c6.678-2.521,15.229-7.444,25.654-14.769L1302.896,297.943z"/>
	<path fill="#E5E3E3" d="M1360.233,257.658v-10.132c7.242-0.813,12.653-1.789,16.235-2.93c3.58-1.139,8.747-3.58,15.503-7.324h8.789
		v23.193c10.727-9.033,19.89-15.156,27.488-18.372c7.6-3.214,15.299-4.822,23.101-4.822c6.664,0,12.556,1.12,17.675,3.357
		c5.12,2.239,9.285,5.27,12.495,9.094c3.21,3.826,5.345,8.179,6.401,13.062c0.648,3.012,0.975,7.568,0.975,13.672v53.711
		c0,6.43,0.468,10.559,1.403,12.391c0.936,1.83,2.421,3.154,4.456,3.967c2.033,0.814,7.038,1.221,15.015,1.221V358h-62.744v-10.254
		h3.418c5.859,0,9.846-0.528,11.963-1.587c2.115-1.057,3.642-2.604,4.578-4.639c0.935-2.033,1.403-6.184,1.403-12.451v-44.922
		c0-9.277-0.753-15.705-2.259-19.287c-1.506-3.58-4.069-6.489-7.689-8.728c-3.622-2.237-8.2-3.357-13.733-3.357
		c-6.592,0-13.632,1.69-21.118,5.066c-7.488,3.378-14.73,8.362-21.729,14.954v56.274c0,6.348,0.468,10.58,1.404,12.695
		c0.935,2.117,2.46,3.704,4.577,4.761c1.465,0.814,5.371,1.221,11.719,1.221h3.54V358h-62.988v-10.254h3.069
		c6.058,0,10.19-0.508,12.401-1.525c2.21-1.018,3.767-2.827,4.667-5.433c0.49-1.301,0.736-5.777,0.736-13.428v-69.702H1360.233z"/>
	<path fill="#E5E3E3" d="M1591.244,187.712h19.97l52.995,142.364c2.604,7.149,5.229,11.881,7.874,14.196
		c2.644,2.315,6.204,3.474,10.681,3.474h2.686V358h-60.6v-10.254c1.953-0.162,3.864-0.244,5.737-0.244
		c3.906,0,6.47-0.406,7.69-1.221c2.359-1.545,3.54-3.498,3.54-5.859c0-1.709-1.141-5.899-3.418-12.573l-11.271-32.959h-61.691
		l-13.283,36.865c-1.385,3.826-2.075,6.47-2.075,7.935c0,1.629,0.428,3.052,1.282,4.272s2.014,2.136,3.479,2.747
		c1.465,0.609,3.824,0.915,7.08,0.915c2.197,0,3.986,0.042,5.371,0.122V358h-50.905v-10.254c4.719,0,8.118-0.468,10.193-1.404
		c2.075-0.935,3.885-2.441,5.432-4.516c1.545-2.076,3.58-6.449,6.104-13.121L1591.244,187.712z M1569.748,282.927h52.586
		l-26.199-73.242L1569.748,282.927z"/>
</g>
<g>
	<path fill="#E5E3E3" d="M1751.421,184.782c15.555,0,29.603,3.744,42.144,11.23c13.6,8.057,24.044,18.515,31.334,31.372
		c7.288,12.859,10.933,27.752,10.933,44.678c0,26.205-8.145,47.567-24.432,64.087c-16.288,16.521-37.054,24.78-62.299,24.78
		c-28.178,0-50.492-9.928-66.942-29.785c-13.438-16.193-20.155-35.563-20.155-58.105c0-16.764,3.786-31.799,11.36-45.105
		c7.572-13.305,18.322-23.822,32.249-31.555C1719.538,188.648,1734.809,184.782,1751.421,184.782z M1751.364,197.966
		c-12.722,0-23.651,2.91-32.783,8.728c-9.133,5.819-16.451,14.386-21.956,25.696c-5.505,11.313-8.255,25.269-8.255,41.87
		c0,15.869,2.71,29.317,8.133,40.344c5.423,11.028,12.701,19.471,21.834,25.33c9.132,5.859,19.407,8.789,30.824,8.789
		c11.333,0,21.364-2.869,30.09-8.605c8.725-5.738,15.942-14.771,21.65-27.1c5.707-12.33,8.563-26.021,8.563-41.077
		c0-15.299-2.855-29.297-8.563-41.992c-4.894-10.904-11.377-18.961-19.449-24.17C1773.381,200.571,1763.35,197.966,1751.364,197.966
		z"/>
	<path fill="#E5E3E3" d="M1965.958,323.942l7.813,6.348c-15.301,20.428-33.651,30.64-55.054,30.64
		c-16.684,0-30.762-5.939-42.236-17.822c-11.475-11.881-17.212-26.651-17.212-44.312c0-11.799,2.665-22.399,7.996-31.8
		c5.329-9.398,12.735-16.702,22.217-21.911c9.479-5.207,20.364-7.813,32.653-7.813c13.996,0,25.675,3.438,35.034,10.315
		c9.357,6.877,14.038,13.814,14.038,20.813c0,3.744-1.099,6.634-3.296,8.667c-2.197,2.035-4.681,3.052-7.446,3.052
		c-1.465,0-2.89-0.366-4.272-1.099c-1.385-0.732-2.808-1.911-4.272-3.54c-0.652-0.732-1.831-3.01-3.54-6.836
		c-2.197-4.719-3.906-7.893-5.127-9.521c-2.523-3.254-5.636-5.817-9.338-7.69c-3.704-1.871-7.834-2.808-12.391-2.808
		c-6.918,0-13.326,1.913-19.227,5.737c-5.9,3.826-10.579,9.46-14.037,16.907c-3.46,7.445-5.188,16.338-5.188,26.672
		c0,16.033,4.272,28.769,12.817,38.208c7.404,8.139,16.235,12.207,26.489,12.207c4.719,0,9.501-0.794,14.343-2.38
		c4.842-1.588,9.419-3.926,13.733-7.02C1953.629,336.76,1958.796,331.755,1965.958,323.942z"/>
	<path fill="#E5E3E3" d="M2075.923,287.321l0.021-13.306c0-9.033-2.529-15.482-7.586-19.348c-5.056-3.865-12.191-5.799-21.407-5.799
		c-4.566,0-8.563,0.549-11.988,1.648c-3.426,1.098-6.18,2.604-8.259,4.516c-2.079,1.913-3.608,4.09-4.587,6.531
		c-0.408,0.896-1.387,4.354-2.936,10.376c-1.873,7.324-5.657,10.986-11.353,10.986c-3.256,0-5.88-1.078-7.873-3.235
		c-1.995-2.155-2.991-5.065-2.991-8.728c0-5.371,1.993-10.64,5.981-15.808c3.986-5.168,10.07-9.44,18.25-12.818
		c8.178-3.376,17.841-5.065,28.991-5.065c10.416,0,19.327,1.606,26.733,4.816c7.404,3.212,12.857,7.823,16.357,13.84
		c2.441,4.146,3.662,11.707,3.662,22.68v46.945c0,6.669,0.202,11.018,0.61,13.049c0.895,3.496,2.461,6.118,4.7,7.865
		c2.237,1.747,5.146,2.621,8.728,2.621c3.742,0,8.219-0.86,13.428-2.583v10.636c-6.756,1.955-12.817,2.934-18.188,2.934
		c-5.779,0-10.641-0.814-14.588-2.441s-7.183-4.008-9.704-7.142c-2.523-3.132-4.15-6.854-4.883-11.169
		c-9.766,7.65-18.597,13.021-26.489,16.113c-7.895,3.092-15.869,4.639-23.926,4.639c-11.23,0-20.346-3.052-27.344-9.155
		c-7-6.104-10.498-13.264-10.498-21.484c0-4.963,1.281-9.684,3.849-14.16c2.567-4.475,6.478-8.423,11.732-11.841
		s13.504-6.428,24.748-9.033C2040.358,291.798,2055.96,289.438,2075.923,287.321z M2075.857,297.943
		c-18.891,2.768-30.574,4.681-35.053,5.737c-8.877,2.035-15.229,4.272-19.055,6.714c-3.828,2.441-6.556,5.065-8.185,7.873
		s-2.441,5.797-2.441,8.971s0.915,6.246,2.748,9.217c1.831,2.971,4.418,5.31,7.758,7.019c3.338,1.709,6.882,2.563,10.628,2.563
		c5.291,0,11.275-1.261,17.953-3.784c6.678-2.521,15.229-7.444,25.654-14.769L2075.857,297.943z"/>
	<path fill="#E5E3E3" d="M2215.714,240.202h8.564l10.967,37.354l-10.986,3.662c-4.395-10.01-10.56-17.884-18.493-23.62
		c-7.936-5.738-15.973-8.606-24.109-8.606c-6.268,0-11.353,1.526-15.259,4.577c-3.906,3.053-5.859,6.573-5.859,10.56
		c0,3.744,1.423,6.958,4.272,9.644c2.766,2.768,8.991,5.901,18.677,9.399l23.804,8.423c13.428,4.803,22.583,9.93,27.466,15.381
		c4.801,5.535,7.202,11.801,7.202,18.799c0,5.941-1.791,11.658-5.371,17.15c-3.582,5.494-8.77,9.869-15.564,13.123
		s-14.587,4.883-23.376,4.883c-13.672,0-25.391-3.912-35.156-11.738l-2.563,8.809h-8.691l-15.234-39.917l10.986-4.395
		c7.416,11.719,14.427,20.02,21.03,24.902c9.211,6.918,19.155,10.376,29.833,10.376c7.092,0,12.918-1.893,17.484-5.676
		c4.564-3.785,6.848-7.996,6.848-12.635c0-3.824-1.425-7.324-4.272-10.498c-2.93-3.092-8.545-6.104-16.846-9.033l-28.198-10.254
		c-12.127-4.395-20.55-9.195-25.269-14.404c-4.721-5.207-7.08-11.188-7.08-17.944c0-8.219,3.845-15.482,11.536-21.79
		c7.689-6.306,17.475-9.46,29.357-9.46c6.184,0,11.719,0.795,16.602,2.386s9.684,4.224,14.404,7.893L2215.714,240.202z"/>
	<path fill="#E5E3E3" d="M2262.101,257.658v-10.132c6.754-0.803,12.431-1.929,17.029-3.376c4.597-1.447,9.826-3.74,15.686-6.878
		h8.911v97.9c0,3.418,0.488,5.981,1.465,7.69s2.339,2.95,4.089,3.723c1.75,0.774,4.944,1.16,9.583,1.16h5.737V358h-62.5v-10.254
		h5.005c5.451,0,9.113-0.488,10.986-1.465c1.871-0.977,3.193-2.359,3.968-4.15c0.772-1.789,1.159-5.981,1.159-12.573v-71.899
		H2262.101z M2293.106,182.219c3.906,0,7.242,1.363,10.01,4.09c2.766,2.727,4.15,6.042,4.15,9.948s-1.385,7.244-4.15,10.01
		c-2.768,2.768-6.104,4.15-10.01,4.15s-7.244-1.383-10.01-4.15c-2.768-2.766-4.15-6.104-4.15-10.01s1.383-7.222,4.15-9.948
		C2285.862,183.582,2289.2,182.219,2293.106,182.219z"/>
	<path fill="#E5E3E3" d="M2399.674,237.272c11.963,0,22.318,2.483,31.067,7.446c8.747,4.965,15.644,12.207,20.69,21.729
		c5.045,9.521,7.568,20.386,7.568,32.593s-2.584,23.071-7.751,32.593c-5.169,9.521-12.207,16.785-21.119,21.789
		c-8.91,5.006-19.552,7.508-31.921,7.508c-19.695,0-34.485-6.144-44.372-18.433c-9.889-12.287-14.832-26.733-14.832-43.335
		c0-12.125,2.563-22.889,7.69-32.287c5.127-9.4,12.309-16.683,21.546-21.852C2377.477,239.856,2387.955,237.272,2399.674,237.272z
		 M2398.697,249.113c-9.277,0-17.132,3.662-23.56,10.986c-8.139,9.115-12.207,22.381-12.207,39.795
		c0,16.766,3.458,29.541,10.376,38.33c6.266,7.813,14.771,11.719,25.513,11.719c6.916,0,13.081-1.831,18.494-5.493
		c5.411-3.662,9.784-9.501,13.122-17.517c3.336-8.016,5.005-17.436,5.005-28.26c0-10.578-1.791-20.06-5.371-28.442
		c-2.768-6.672-6.938-11.86-12.512-15.563C2411.982,250.965,2405.695,249.113,2398.697,249.113z"/>
</g>
</svg>
