<?xml version="1.0" encoding="utf-8"?>
<!-- Generator: Adobe Illustrator 16.0.0, SVG Export Plug-In . SVG Version: 6.00 Build 0)  -->
<!DOCTYPE svg PUBLIC "-//W3C//DTD SVG 1.1//EN" "http://www.w3.org/Graphics/SVG/1.1/DTD/svg11.dtd">
<svg version="1.1" id="Layer_1" xmlns="http://www.w3.org/2000/svg" xmlns:xlink="http://www.w3.org/1999/xlink" x="0px" y="0px"
	 width="1280px" height="1280px" viewBox="0 0 1280 1280" enable-background="new 0 0 1280 1280" xml:space="preserve">
<g>
</g>
<path fill="none" stroke="#231F20" stroke-width="100" stroke-miterlimit="10" d="M652.205,1712"/>
<path fill="none" stroke="#231F20" stroke-width="100" stroke-miterlimit="10" d="M652.205,1712"/>
<path fill="none" stroke="#DDDDDD" stroke-width="20" stroke-miterlimit="10" d="M1024.744,82v69.056
	C974.15,108.307,910.742,85,843.744,85c-75.058,0-145.623,29.229-198.697,82.303c-42.797,42.796-70.076,96.97-79.042,155.697H447.2
	v100h115.543v489.025c0,99.804-81.196,181-181,181s-181-81.196-181-181h-100c0,75.058,29.229,145.623,82.303,198.697
	c53.074,53.073,123.639,82.303,198.697,82.303s145.623-29.229,198.697-82.303c11.873-11.873,22.542-24.627,31.969-38.104
	c9.59,13.837,20.48,26.922,32.638,39.079c53.074,53.073,123.64,82.303,198.697,82.303s145.623-29.229,198.696-82.303
	c53.074-53.074,82.304-123.64,82.304-198.697s-29.229-145.623-82.304-198.697c-37.43-37.43-83.566-62.98-133.837-74.803
	c42.617-10.022,82.253-29.923,116.141-58.556V650h100V82H1024.744z M662.743,580.944c33.888,28.633,73.524,48.534,116.142,58.556
	c-42.617,10.022-82.254,29.923-116.142,58.556V580.944z M1024.744,913c0,99.804-81.196,181-181,181s-181.001-81.196-181.001-181
	s81.197-181,181.001-181S1024.744,813.196,1024.744,913z M843.744,547c-99.804,0-181.001-81.196-181.001-181s81.197-181,181.001-181
	s181,81.196,181,181S943.548,547,843.744,547z"/>
<g>
</g>
<path fill="none" stroke="#DDDDDD" stroke-width="100" stroke-miterlimit="10" d="M1907,939.025c0,127.578-103.422,231-231,231
	s-231-103.422-231-231"/>
<circle fill="none" stroke="#DDDDDD" stroke-width="100" stroke-miterlimit="10" cx="2138" cy="393" r="231"/>
<circle fill="none" stroke="#DDDDDD" stroke-width="100" stroke-miterlimit="10" cx="2138" cy="940" r="231"/>
<line fill="none" stroke="#DDDDDD" stroke-width="100" stroke-miterlimit="10" x1="1907" y1="393" x2="1907" y2="961"/>
<line fill="none" stroke="#DDDDDD" stroke-width="100" stroke-miterlimit="10" x1="2369.001" y1="109" x2="2369.001" y2="677"/>
<line fill="none" stroke="#DDDDDD" stroke-width="100" stroke-miterlimit="10" x1="1741.457" y1="400" x2="1934.257" y2="400"/>
</svg>
